<?xml version="1.0" encoding="UTF-8"?>
<svg xmlns="http://www.w3.org/2000/svg" xmlns:xlink="http://www.w3.org/1999/xlink" width="40px" height="36px" viewBox="0 0 32 32" version="1.1">
<g id="surface1">
<path style=" stroke:none;fill-rule:nonzero;fill:rgb(0%,47.843137%,80%);fill-opacity:1;" d="M 2 16 L 2 30 L 30 30 L 30 2 L 2 2 Z M 2 16 "/>
<path style=" stroke:none;fill-rule:nonzero;fill:rgb(100%,100%,100%);fill-opacity:1;" d="M 24.5625 14.882812 C 25.234375 15.039062 25.84375 15.390625 26.316406 15.894531 C 26.574219 16.164062 26.800781 16.464844 26.984375 16.792969 C 26.996094 16.828125 25.777344 17.644531 25.039062 18.105469 C 25.011719 18.121094 24.90625 18.003906 24.785156 17.828125 C 24.511719 17.355469 24.015625 17.058594 23.46875 17.035156 C 22.621094 16.980469 22.070312 17.425781 22.078125 18.164062 C 22.070312 18.347656 22.113281 18.527344 22.199219 18.691406 C 22.386719 19.078125 22.730469 19.308594 23.820312 19.777344 C 25.820312 20.640625 26.683594 21.210938 27.222656 22.019531 C 27.828125 23.054688 27.945312 24.300781 27.546875 25.433594 C 26.992188 26.679688 25.804688 27.53125 24.445312 27.648438 C 23.734375 27.730469 23.019531 27.722656 22.3125 27.628906 C 21.226562 27.449219 20.230469 26.929688 19.464844 26.144531 C 19.171875 25.816406 18.929688 25.453125 18.734375 25.0625 C 18.816406 25.003906 18.902344 24.949219 18.992188 24.898438 C 19.117188 24.828125 19.59375 24.558594 20.03125 24.300781 L 20.832031 23.832031 L 21 24.078125 C 21.285156 24.488281 21.648438 24.832031 22.066406 25.101562 C 22.929688 25.570312 23.980469 25.519531 24.789062 24.960938 C 25.210938 24.550781 25.277344 23.898438 24.945312 23.410156 C 24.730469 23.101562 24.285156 22.839844 23.023438 22.289062 C 22.035156 21.957031 21.132812 21.402344 20.386719 20.667969 C 20.03125 20.265625 19.769531 19.785156 19.617188 19.269531 C 19.507812 18.679688 19.488281 18.078125 19.570312 17.480469 C 19.871094 16.082031 21.019531 15.019531 22.441406 14.824219 C 23.148438 14.738281 23.863281 14.757812 24.5625 14.882812 Z M 17.992188 16.054688 L 18 17.199219 L 14.355469 17.199219 L 14.355469 27.554688 L 11.777344 27.554688 L 11.777344 17.199219 L 8.132812 17.199219 L 8.132812 16.074219 C 8.125 15.691406 8.132812 15.304688 8.164062 14.921875 C 8.175781 14.902344 10.394531 14.894531 13.085938 14.898438 L 17.976562 14.910156 Z M 17.992188 16.054688 "/>
</g>
</svg>
